<mxfile host="app.diagrams.net" modified="2023-09-14T13:00:40.404Z" agent="Mozilla/5.0 (Windows NT 10.0; Win64; x64) AppleWebKit/537.36 (KHTML, like Gecko) Chrome/116.0.0.0 Safari/537.36" etag="hb9oIi_GTq10HjKYj0fC" version="21.7.1" type="github">
  <diagram name="Trang-1" id="c6DrtgqLX9AAQbIjRyR2">
    <mxGraphModel dx="1050" dy="534" grid="1" gridSize="10" guides="1" tooltips="1" connect="1" arrows="1" fold="1" page="1" pageScale="1" pageWidth="2339" pageHeight="3300" math="0" shadow="0">
      <root>
        <mxCell id="0" />
        <mxCell id="1" parent="0" />
        <mxCell id="hg2JY5M4wenPQIr7XRld-16" style="rounded=0;orthogonalLoop=1;jettySize=auto;html=1;exitX=0;exitY=1;exitDx=0;exitDy=0;entryX=1;entryY=0;entryDx=0;entryDy=0;" edge="1" parent="1" source="hg2JY5M4wenPQIr7XRld-1" target="hg2JY5M4wenPQIr7XRld-3">
          <mxGeometry relative="1" as="geometry" />
        </mxCell>
        <mxCell id="hg2JY5M4wenPQIr7XRld-17" style="rounded=0;orthogonalLoop=1;jettySize=auto;html=1;exitX=1;exitY=1;exitDx=0;exitDy=0;entryX=0;entryY=0;entryDx=0;entryDy=0;" edge="1" parent="1" source="hg2JY5M4wenPQIr7XRld-1" target="hg2JY5M4wenPQIr7XRld-2">
          <mxGeometry relative="1" as="geometry" />
        </mxCell>
        <mxCell id="hg2JY5M4wenPQIr7XRld-1" value="A" style="ellipse;whiteSpace=wrap;html=1;aspect=fixed;" vertex="1" parent="1">
          <mxGeometry x="580" y="160" width="40" height="40" as="geometry" />
        </mxCell>
        <mxCell id="hg2JY5M4wenPQIr7XRld-20" style="rounded=0;orthogonalLoop=1;jettySize=auto;html=1;exitX=0;exitY=1;exitDx=0;exitDy=0;entryX=1;entryY=0;entryDx=0;entryDy=0;" edge="1" parent="1" source="hg2JY5M4wenPQIr7XRld-2" target="hg2JY5M4wenPQIr7XRld-7">
          <mxGeometry relative="1" as="geometry" />
        </mxCell>
        <mxCell id="hg2JY5M4wenPQIr7XRld-21" style="rounded=0;orthogonalLoop=1;jettySize=auto;html=1;exitX=1;exitY=1;exitDx=0;exitDy=0;entryX=0;entryY=0;entryDx=0;entryDy=0;" edge="1" parent="1" source="hg2JY5M4wenPQIr7XRld-2" target="hg2JY5M4wenPQIr7XRld-6">
          <mxGeometry relative="1" as="geometry" />
        </mxCell>
        <mxCell id="hg2JY5M4wenPQIr7XRld-2" value="B" style="ellipse;whiteSpace=wrap;html=1;aspect=fixed;" vertex="1" parent="1">
          <mxGeometry x="820" y="280" width="40" height="40" as="geometry" />
        </mxCell>
        <mxCell id="hg2JY5M4wenPQIr7XRld-18" style="rounded=0;orthogonalLoop=1;jettySize=auto;html=1;exitX=0;exitY=1;exitDx=0;exitDy=0;entryX=1;entryY=0;entryDx=0;entryDy=0;" edge="1" parent="1" source="hg2JY5M4wenPQIr7XRld-3" target="hg2JY5M4wenPQIr7XRld-5">
          <mxGeometry relative="1" as="geometry" />
        </mxCell>
        <mxCell id="hg2JY5M4wenPQIr7XRld-19" style="rounded=0;orthogonalLoop=1;jettySize=auto;html=1;exitX=1;exitY=1;exitDx=0;exitDy=0;entryX=0;entryY=0;entryDx=0;entryDy=0;" edge="1" parent="1" source="hg2JY5M4wenPQIr7XRld-3" target="hg2JY5M4wenPQIr7XRld-4">
          <mxGeometry relative="1" as="geometry" />
        </mxCell>
        <mxCell id="hg2JY5M4wenPQIr7XRld-3" value="B" style="ellipse;whiteSpace=wrap;html=1;aspect=fixed;" vertex="1" parent="1">
          <mxGeometry x="360" y="280" width="40" height="40" as="geometry" />
        </mxCell>
        <mxCell id="hg2JY5M4wenPQIr7XRld-24" style="rounded=0;orthogonalLoop=1;jettySize=auto;html=1;exitX=0;exitY=1;exitDx=0;exitDy=0;entryX=1;entryY=0;entryDx=0;entryDy=0;" edge="1" parent="1" source="hg2JY5M4wenPQIr7XRld-4" target="hg2JY5M4wenPQIr7XRld-11">
          <mxGeometry relative="1" as="geometry" />
        </mxCell>
        <mxCell id="hg2JY5M4wenPQIr7XRld-25" style="rounded=0;orthogonalLoop=1;jettySize=auto;html=1;exitX=1;exitY=1;exitDx=0;exitDy=0;entryX=0;entryY=0;entryDx=0;entryDy=0;" edge="1" parent="1" source="hg2JY5M4wenPQIr7XRld-4" target="hg2JY5M4wenPQIr7XRld-10">
          <mxGeometry relative="1" as="geometry" />
        </mxCell>
        <mxCell id="hg2JY5M4wenPQIr7XRld-4" value="C" style="ellipse;whiteSpace=wrap;html=1;aspect=fixed;" vertex="1" parent="1">
          <mxGeometry x="480" y="400" width="40" height="40" as="geometry" />
        </mxCell>
        <mxCell id="hg2JY5M4wenPQIr7XRld-22" style="rounded=0;orthogonalLoop=1;jettySize=auto;html=1;exitX=0;exitY=1;exitDx=0;exitDy=0;entryX=1;entryY=0;entryDx=0;entryDy=0;" edge="1" parent="1" source="hg2JY5M4wenPQIr7XRld-5" target="hg2JY5M4wenPQIr7XRld-9">
          <mxGeometry relative="1" as="geometry" />
        </mxCell>
        <mxCell id="hg2JY5M4wenPQIr7XRld-23" style="rounded=0;orthogonalLoop=1;jettySize=auto;html=1;exitX=1;exitY=1;exitDx=0;exitDy=0;entryX=0;entryY=0;entryDx=0;entryDy=0;" edge="1" parent="1" source="hg2JY5M4wenPQIr7XRld-5" target="hg2JY5M4wenPQIr7XRld-8">
          <mxGeometry relative="1" as="geometry" />
        </mxCell>
        <mxCell id="hg2JY5M4wenPQIr7XRld-5" value="C" style="ellipse;whiteSpace=wrap;html=1;aspect=fixed;" vertex="1" parent="1">
          <mxGeometry x="240" y="400" width="40" height="40" as="geometry" />
        </mxCell>
        <mxCell id="hg2JY5M4wenPQIr7XRld-28" style="rounded=0;orthogonalLoop=1;jettySize=auto;html=1;exitX=0;exitY=1;exitDx=0;exitDy=0;entryX=1;entryY=0;entryDx=0;entryDy=0;" edge="1" parent="1" source="hg2JY5M4wenPQIr7XRld-6" target="hg2JY5M4wenPQIr7XRld-15">
          <mxGeometry relative="1" as="geometry" />
        </mxCell>
        <mxCell id="hg2JY5M4wenPQIr7XRld-29" style="rounded=0;orthogonalLoop=1;jettySize=auto;html=1;exitX=1;exitY=1;exitDx=0;exitDy=0;entryX=0;entryY=0;entryDx=0;entryDy=0;" edge="1" parent="1" source="hg2JY5M4wenPQIr7XRld-6" target="hg2JY5M4wenPQIr7XRld-14">
          <mxGeometry relative="1" as="geometry" />
        </mxCell>
        <mxCell id="hg2JY5M4wenPQIr7XRld-6" value="C" style="ellipse;whiteSpace=wrap;html=1;aspect=fixed;" vertex="1" parent="1">
          <mxGeometry x="940" y="400" width="40" height="40" as="geometry" />
        </mxCell>
        <mxCell id="hg2JY5M4wenPQIr7XRld-26" style="rounded=0;orthogonalLoop=1;jettySize=auto;html=1;exitX=0;exitY=1;exitDx=0;exitDy=0;entryX=1;entryY=0;entryDx=0;entryDy=0;" edge="1" parent="1" source="hg2JY5M4wenPQIr7XRld-7" target="hg2JY5M4wenPQIr7XRld-13">
          <mxGeometry relative="1" as="geometry" />
        </mxCell>
        <mxCell id="hg2JY5M4wenPQIr7XRld-27" style="rounded=0;orthogonalLoop=1;jettySize=auto;html=1;exitX=1;exitY=1;exitDx=0;exitDy=0;entryX=0;entryY=0;entryDx=0;entryDy=0;" edge="1" parent="1" source="hg2JY5M4wenPQIr7XRld-7" target="hg2JY5M4wenPQIr7XRld-12">
          <mxGeometry relative="1" as="geometry" />
        </mxCell>
        <mxCell id="hg2JY5M4wenPQIr7XRld-7" value="C" style="ellipse;whiteSpace=wrap;html=1;aspect=fixed;" vertex="1" parent="1">
          <mxGeometry x="700" y="400" width="40" height="40" as="geometry" />
        </mxCell>
        <mxCell id="hg2JY5M4wenPQIr7XRld-48" style="rounded=0;orthogonalLoop=1;jettySize=auto;html=1;exitX=0;exitY=1;exitDx=0;exitDy=0;entryX=0.5;entryY=0;entryDx=0;entryDy=0;" edge="1" parent="1" source="hg2JY5M4wenPQIr7XRld-8" target="hg2JY5M4wenPQIr7XRld-32">
          <mxGeometry relative="1" as="geometry" />
        </mxCell>
        <mxCell id="hg2JY5M4wenPQIr7XRld-49" style="rounded=0;orthogonalLoop=1;jettySize=auto;html=1;exitX=1;exitY=1;exitDx=0;exitDy=0;entryX=0.5;entryY=0;entryDx=0;entryDy=0;" edge="1" parent="1" source="hg2JY5M4wenPQIr7XRld-8" target="hg2JY5M4wenPQIr7XRld-33">
          <mxGeometry relative="1" as="geometry" />
        </mxCell>
        <mxCell id="hg2JY5M4wenPQIr7XRld-8" value="D" style="ellipse;whiteSpace=wrap;html=1;aspect=fixed;" vertex="1" parent="1">
          <mxGeometry x="300" y="520" width="40" height="40" as="geometry" />
        </mxCell>
        <mxCell id="hg2JY5M4wenPQIr7XRld-46" style="rounded=0;orthogonalLoop=1;jettySize=auto;html=1;exitX=0;exitY=1;exitDx=0;exitDy=0;entryX=0.5;entryY=0;entryDx=0;entryDy=0;" edge="1" parent="1" source="hg2JY5M4wenPQIr7XRld-9" target="hg2JY5M4wenPQIr7XRld-30">
          <mxGeometry relative="1" as="geometry" />
        </mxCell>
        <mxCell id="hg2JY5M4wenPQIr7XRld-47" style="rounded=0;orthogonalLoop=1;jettySize=auto;html=1;exitX=1;exitY=1;exitDx=0;exitDy=0;entryX=0.5;entryY=0;entryDx=0;entryDy=0;" edge="1" parent="1" source="hg2JY5M4wenPQIr7XRld-9" target="hg2JY5M4wenPQIr7XRld-31">
          <mxGeometry relative="1" as="geometry" />
        </mxCell>
        <mxCell id="hg2JY5M4wenPQIr7XRld-9" value="D" style="ellipse;whiteSpace=wrap;html=1;aspect=fixed;" vertex="1" parent="1">
          <mxGeometry x="180" y="520" width="40" height="40" as="geometry" />
        </mxCell>
        <mxCell id="hg2JY5M4wenPQIr7XRld-52" style="rounded=0;orthogonalLoop=1;jettySize=auto;html=1;exitX=0;exitY=1;exitDx=0;exitDy=0;entryX=0.5;entryY=0;entryDx=0;entryDy=0;" edge="1" parent="1" source="hg2JY5M4wenPQIr7XRld-10" target="hg2JY5M4wenPQIr7XRld-36">
          <mxGeometry relative="1" as="geometry" />
        </mxCell>
        <mxCell id="hg2JY5M4wenPQIr7XRld-53" style="rounded=0;orthogonalLoop=1;jettySize=auto;html=1;exitX=1;exitY=1;exitDx=0;exitDy=0;entryX=0.5;entryY=0;entryDx=0;entryDy=0;" edge="1" parent="1" source="hg2JY5M4wenPQIr7XRld-10" target="hg2JY5M4wenPQIr7XRld-37">
          <mxGeometry relative="1" as="geometry" />
        </mxCell>
        <mxCell id="hg2JY5M4wenPQIr7XRld-10" value="D" style="ellipse;whiteSpace=wrap;html=1;aspect=fixed;" vertex="1" parent="1">
          <mxGeometry x="540" y="520" width="40" height="40" as="geometry" />
        </mxCell>
        <mxCell id="hg2JY5M4wenPQIr7XRld-50" style="rounded=0;orthogonalLoop=1;jettySize=auto;html=1;exitX=0;exitY=1;exitDx=0;exitDy=0;entryX=0.5;entryY=0;entryDx=0;entryDy=0;" edge="1" parent="1" source="hg2JY5M4wenPQIr7XRld-11" target="hg2JY5M4wenPQIr7XRld-34">
          <mxGeometry relative="1" as="geometry" />
        </mxCell>
        <mxCell id="hg2JY5M4wenPQIr7XRld-51" style="rounded=0;orthogonalLoop=1;jettySize=auto;html=1;exitX=1;exitY=1;exitDx=0;exitDy=0;entryX=0.5;entryY=0;entryDx=0;entryDy=0;" edge="1" parent="1" source="hg2JY5M4wenPQIr7XRld-11" target="hg2JY5M4wenPQIr7XRld-35">
          <mxGeometry relative="1" as="geometry" />
        </mxCell>
        <mxCell id="hg2JY5M4wenPQIr7XRld-11" value="D" style="ellipse;whiteSpace=wrap;html=1;aspect=fixed;" vertex="1" parent="1">
          <mxGeometry x="420" y="520" width="40" height="40" as="geometry" />
        </mxCell>
        <mxCell id="hg2JY5M4wenPQIr7XRld-56" style="rounded=0;orthogonalLoop=1;jettySize=auto;html=1;exitX=0;exitY=1;exitDx=0;exitDy=0;entryX=0.5;entryY=0;entryDx=0;entryDy=0;" edge="1" parent="1" source="hg2JY5M4wenPQIr7XRld-12" target="hg2JY5M4wenPQIr7XRld-40">
          <mxGeometry relative="1" as="geometry" />
        </mxCell>
        <mxCell id="hg2JY5M4wenPQIr7XRld-57" style="rounded=0;orthogonalLoop=1;jettySize=auto;html=1;exitX=1;exitY=1;exitDx=0;exitDy=0;entryX=0.5;entryY=0;entryDx=0;entryDy=0;" edge="1" parent="1" source="hg2JY5M4wenPQIr7XRld-12" target="hg2JY5M4wenPQIr7XRld-41">
          <mxGeometry relative="1" as="geometry" />
        </mxCell>
        <mxCell id="hg2JY5M4wenPQIr7XRld-12" value="D" style="ellipse;whiteSpace=wrap;html=1;aspect=fixed;" vertex="1" parent="1">
          <mxGeometry x="760" y="520" width="40" height="40" as="geometry" />
        </mxCell>
        <mxCell id="hg2JY5M4wenPQIr7XRld-54" style="rounded=0;orthogonalLoop=1;jettySize=auto;html=1;exitX=0;exitY=1;exitDx=0;exitDy=0;entryX=0.5;entryY=0;entryDx=0;entryDy=0;" edge="1" parent="1" source="hg2JY5M4wenPQIr7XRld-13" target="hg2JY5M4wenPQIr7XRld-38">
          <mxGeometry relative="1" as="geometry" />
        </mxCell>
        <mxCell id="hg2JY5M4wenPQIr7XRld-55" style="rounded=0;orthogonalLoop=1;jettySize=auto;html=1;exitX=1;exitY=1;exitDx=0;exitDy=0;entryX=0.5;entryY=0;entryDx=0;entryDy=0;" edge="1" parent="1" source="hg2JY5M4wenPQIr7XRld-13" target="hg2JY5M4wenPQIr7XRld-39">
          <mxGeometry relative="1" as="geometry" />
        </mxCell>
        <mxCell id="hg2JY5M4wenPQIr7XRld-13" value="D" style="ellipse;whiteSpace=wrap;html=1;aspect=fixed;" vertex="1" parent="1">
          <mxGeometry x="640" y="520" width="40" height="40" as="geometry" />
        </mxCell>
        <mxCell id="hg2JY5M4wenPQIr7XRld-60" style="rounded=0;orthogonalLoop=1;jettySize=auto;html=1;exitX=0;exitY=1;exitDx=0;exitDy=0;entryX=0.5;entryY=0;entryDx=0;entryDy=0;" edge="1" parent="1" source="hg2JY5M4wenPQIr7XRld-14" target="hg2JY5M4wenPQIr7XRld-44">
          <mxGeometry relative="1" as="geometry" />
        </mxCell>
        <mxCell id="hg2JY5M4wenPQIr7XRld-61" style="rounded=0;orthogonalLoop=1;jettySize=auto;html=1;exitX=1;exitY=1;exitDx=0;exitDy=0;entryX=0.5;entryY=0;entryDx=0;entryDy=0;" edge="1" parent="1" source="hg2JY5M4wenPQIr7XRld-14" target="hg2JY5M4wenPQIr7XRld-45">
          <mxGeometry relative="1" as="geometry" />
        </mxCell>
        <mxCell id="hg2JY5M4wenPQIr7XRld-14" value="C" style="ellipse;whiteSpace=wrap;html=1;aspect=fixed;" vertex="1" parent="1">
          <mxGeometry x="1000" y="520" width="40" height="40" as="geometry" />
        </mxCell>
        <mxCell id="hg2JY5M4wenPQIr7XRld-58" style="rounded=0;orthogonalLoop=1;jettySize=auto;html=1;exitX=0;exitY=1;exitDx=0;exitDy=0;entryX=0.5;entryY=0;entryDx=0;entryDy=0;" edge="1" parent="1" source="hg2JY5M4wenPQIr7XRld-15" target="hg2JY5M4wenPQIr7XRld-42">
          <mxGeometry relative="1" as="geometry" />
        </mxCell>
        <mxCell id="hg2JY5M4wenPQIr7XRld-59" style="rounded=0;orthogonalLoop=1;jettySize=auto;html=1;exitX=1;exitY=1;exitDx=0;exitDy=0;entryX=0.5;entryY=0;entryDx=0;entryDy=0;" edge="1" parent="1" source="hg2JY5M4wenPQIr7XRld-15" target="hg2JY5M4wenPQIr7XRld-43">
          <mxGeometry relative="1" as="geometry" />
        </mxCell>
        <mxCell id="hg2JY5M4wenPQIr7XRld-15" value="D" style="ellipse;whiteSpace=wrap;html=1;aspect=fixed;" vertex="1" parent="1">
          <mxGeometry x="880" y="520" width="40" height="40" as="geometry" />
        </mxCell>
        <mxCell id="hg2JY5M4wenPQIr7XRld-30" value="T" style="rounded=0;whiteSpace=wrap;html=1;" vertex="1" parent="1">
          <mxGeometry x="165" y="600" width="30" height="40" as="geometry" />
        </mxCell>
        <mxCell id="hg2JY5M4wenPQIr7XRld-31" value="F" style="rounded=0;whiteSpace=wrap;html=1;" vertex="1" parent="1">
          <mxGeometry x="205" y="600" width="30" height="40" as="geometry" />
        </mxCell>
        <mxCell id="hg2JY5M4wenPQIr7XRld-32" value="F" style="rounded=0;whiteSpace=wrap;html=1;" vertex="1" parent="1">
          <mxGeometry x="285" y="600" width="30" height="40" as="geometry" />
        </mxCell>
        <mxCell id="hg2JY5M4wenPQIr7XRld-33" value="T" style="rounded=0;whiteSpace=wrap;html=1;" vertex="1" parent="1">
          <mxGeometry x="325" y="600" width="30" height="40" as="geometry" />
        </mxCell>
        <mxCell id="hg2JY5M4wenPQIr7XRld-34" value="F" style="rounded=0;whiteSpace=wrap;html=1;" vertex="1" parent="1">
          <mxGeometry x="405" y="600" width="30" height="40" as="geometry" />
        </mxCell>
        <mxCell id="hg2JY5M4wenPQIr7XRld-35" value="T" style="rounded=0;whiteSpace=wrap;html=1;" vertex="1" parent="1">
          <mxGeometry x="445" y="600" width="30" height="40" as="geometry" />
        </mxCell>
        <mxCell id="hg2JY5M4wenPQIr7XRld-36" value="T" style="rounded=0;whiteSpace=wrap;html=1;" vertex="1" parent="1">
          <mxGeometry x="525" y="600" width="30" height="40" as="geometry" />
        </mxCell>
        <mxCell id="hg2JY5M4wenPQIr7XRld-37" value="F" style="rounded=0;whiteSpace=wrap;html=1;" vertex="1" parent="1">
          <mxGeometry x="565" y="600" width="30" height="40" as="geometry" />
        </mxCell>
        <mxCell id="hg2JY5M4wenPQIr7XRld-38" value="F" style="rounded=0;whiteSpace=wrap;html=1;" vertex="1" parent="1">
          <mxGeometry x="625" y="600" width="30" height="40" as="geometry" />
        </mxCell>
        <mxCell id="hg2JY5M4wenPQIr7XRld-39" value="T" style="rounded=0;whiteSpace=wrap;html=1;" vertex="1" parent="1">
          <mxGeometry x="665" y="600" width="30" height="40" as="geometry" />
        </mxCell>
        <mxCell id="hg2JY5M4wenPQIr7XRld-40" value="T" style="rounded=0;whiteSpace=wrap;html=1;" vertex="1" parent="1">
          <mxGeometry x="745" y="600" width="30" height="40" as="geometry" />
        </mxCell>
        <mxCell id="hg2JY5M4wenPQIr7XRld-41" value="F" style="rounded=0;whiteSpace=wrap;html=1;" vertex="1" parent="1">
          <mxGeometry x="785" y="600" width="30" height="40" as="geometry" />
        </mxCell>
        <mxCell id="hg2JY5M4wenPQIr7XRld-42" value="T" style="rounded=0;whiteSpace=wrap;html=1;" vertex="1" parent="1">
          <mxGeometry x="865" y="600" width="30" height="40" as="geometry" />
        </mxCell>
        <mxCell id="hg2JY5M4wenPQIr7XRld-43" value="F" style="rounded=0;whiteSpace=wrap;html=1;" vertex="1" parent="1">
          <mxGeometry x="905" y="600" width="30" height="40" as="geometry" />
        </mxCell>
        <mxCell id="hg2JY5M4wenPQIr7XRld-44" value="F" style="rounded=0;whiteSpace=wrap;html=1;" vertex="1" parent="1">
          <mxGeometry x="985" y="601" width="30" height="40" as="geometry" />
        </mxCell>
        <mxCell id="hg2JY5M4wenPQIr7XRld-45" value="T" style="rounded=0;whiteSpace=wrap;html=1;" vertex="1" parent="1">
          <mxGeometry x="1025" y="601" width="30" height="40" as="geometry" />
        </mxCell>
        <mxCell id="hg2JY5M4wenPQIr7XRld-64" value="T" style="text;html=1;strokeColor=none;fillColor=none;align=center;verticalAlign=middle;whiteSpace=wrap;rounded=0;rotation=0;fontSize=16;" vertex="1" parent="1">
          <mxGeometry x="430" y="223" width="60" height="30" as="geometry" />
        </mxCell>
        <mxCell id="hg2JY5M4wenPQIr7XRld-67" value="T" style="text;html=1;strokeColor=none;fillColor=none;align=center;verticalAlign=middle;whiteSpace=wrap;rounded=0;rotation=0;fontSize=16;" vertex="1" parent="1">
          <mxGeometry x="280" y="340" width="60" height="30" as="geometry" />
        </mxCell>
        <mxCell id="hg2JY5M4wenPQIr7XRld-68" value="T" style="text;html=1;strokeColor=none;fillColor=none;align=center;verticalAlign=middle;whiteSpace=wrap;rounded=0;rotation=0;fontSize=16;" vertex="1" parent="1">
          <mxGeometry x="190" y="460" width="60" height="30" as="geometry" />
        </mxCell>
        <mxCell id="hg2JY5M4wenPQIr7XRld-69" value="T" style="text;html=1;strokeColor=none;fillColor=none;align=center;verticalAlign=middle;whiteSpace=wrap;rounded=0;rotation=0;fontSize=16;" vertex="1" parent="1">
          <mxGeometry x="145" y="560" width="60" height="30" as="geometry" />
        </mxCell>
        <mxCell id="hg2JY5M4wenPQIr7XRld-70" value="T" style="text;html=1;strokeColor=none;fillColor=none;align=center;verticalAlign=middle;whiteSpace=wrap;rounded=0;rotation=0;fontSize=16;" vertex="1" parent="1">
          <mxGeometry x="730" y="340" width="60" height="30" as="geometry" />
        </mxCell>
        <mxCell id="hg2JY5M4wenPQIr7XRld-71" value="T" style="text;html=1;strokeColor=none;fillColor=none;align=center;verticalAlign=middle;whiteSpace=wrap;rounded=0;rotation=0;fontSize=16;" vertex="1" parent="1">
          <mxGeometry x="430" y="460" width="60" height="30" as="geometry" />
        </mxCell>
        <mxCell id="hg2JY5M4wenPQIr7XRld-72" value="T" style="text;html=1;strokeColor=none;fillColor=none;align=center;verticalAlign=middle;whiteSpace=wrap;rounded=0;rotation=0;fontSize=16;" vertex="1" parent="1">
          <mxGeometry x="650" y="460" width="60" height="30" as="geometry" />
        </mxCell>
        <mxCell id="hg2JY5M4wenPQIr7XRld-73" value="T" style="text;html=1;strokeColor=none;fillColor=none;align=center;verticalAlign=middle;whiteSpace=wrap;rounded=0;rotation=0;fontSize=16;" vertex="1" parent="1">
          <mxGeometry x="895" y="460" width="60" height="30" as="geometry" />
        </mxCell>
        <mxCell id="hg2JY5M4wenPQIr7XRld-74" value="T" style="text;html=1;strokeColor=none;fillColor=none;align=center;verticalAlign=middle;whiteSpace=wrap;rounded=0;rotation=0;fontSize=16;" vertex="1" parent="1">
          <mxGeometry x="265" y="560" width="60" height="30" as="geometry" />
        </mxCell>
        <mxCell id="hg2JY5M4wenPQIr7XRld-75" value="T" style="text;html=1;strokeColor=none;fillColor=none;align=center;verticalAlign=middle;whiteSpace=wrap;rounded=0;rotation=0;fontSize=16;" vertex="1" parent="1">
          <mxGeometry x="385" y="560" width="60" height="30" as="geometry" />
        </mxCell>
        <mxCell id="hg2JY5M4wenPQIr7XRld-76" value="T" style="text;html=1;strokeColor=none;fillColor=none;align=center;verticalAlign=middle;whiteSpace=wrap;rounded=0;rotation=0;fontSize=16;" vertex="1" parent="1">
          <mxGeometry x="505" y="560" width="60" height="30" as="geometry" />
        </mxCell>
        <mxCell id="hg2JY5M4wenPQIr7XRld-77" value="T" style="text;html=1;strokeColor=none;fillColor=none;align=center;verticalAlign=middle;whiteSpace=wrap;rounded=0;rotation=0;fontSize=16;" vertex="1" parent="1">
          <mxGeometry x="605" y="560" width="60" height="30" as="geometry" />
        </mxCell>
        <mxCell id="hg2JY5M4wenPQIr7XRld-79" value="T" style="text;html=1;strokeColor=none;fillColor=none;align=center;verticalAlign=middle;whiteSpace=wrap;rounded=0;rotation=0;fontSize=16;" vertex="1" parent="1">
          <mxGeometry x="725" y="560" width="60" height="30" as="geometry" />
        </mxCell>
        <mxCell id="hg2JY5M4wenPQIr7XRld-80" value="T" style="text;html=1;strokeColor=none;fillColor=none;align=center;verticalAlign=middle;whiteSpace=wrap;rounded=0;rotation=0;fontSize=16;" vertex="1" parent="1">
          <mxGeometry x="845" y="560" width="60" height="30" as="geometry" />
        </mxCell>
        <mxCell id="hg2JY5M4wenPQIr7XRld-82" value="T" style="text;html=1;strokeColor=none;fillColor=none;align=center;verticalAlign=middle;whiteSpace=wrap;rounded=0;rotation=0;fontSize=16;" vertex="1" parent="1">
          <mxGeometry x="965" y="560" width="60" height="30" as="geometry" />
        </mxCell>
        <mxCell id="hg2JY5M4wenPQIr7XRld-83" value="F" style="text;html=1;strokeColor=none;fillColor=none;align=center;verticalAlign=middle;whiteSpace=wrap;rounded=0;rotation=0;fontSize=16;" vertex="1" parent="1">
          <mxGeometry x="718" y="223" width="60" height="30" as="geometry" />
        </mxCell>
        <mxCell id="hg2JY5M4wenPQIr7XRld-84" value="F" style="text;html=1;strokeColor=none;fillColor=none;align=center;verticalAlign=middle;whiteSpace=wrap;rounded=0;rotation=0;fontSize=16;" vertex="1" parent="1">
          <mxGeometry x="420" y="340" width="60" height="30" as="geometry" />
        </mxCell>
        <mxCell id="hg2JY5M4wenPQIr7XRld-85" value="F" style="text;html=1;strokeColor=none;fillColor=none;align=center;verticalAlign=middle;whiteSpace=wrap;rounded=0;rotation=0;fontSize=16;" vertex="1" parent="1">
          <mxGeometry x="880" y="340" width="60" height="30" as="geometry" />
        </mxCell>
        <mxCell id="hg2JY5M4wenPQIr7XRld-86" value="F" style="text;html=1;strokeColor=none;fillColor=none;align=center;verticalAlign=middle;whiteSpace=wrap;rounded=0;rotation=0;fontSize=16;" vertex="1" parent="1">
          <mxGeometry x="730" y="460" width="60" height="30" as="geometry" />
        </mxCell>
        <mxCell id="hg2JY5M4wenPQIr7XRld-87" value="F" style="text;html=1;strokeColor=none;fillColor=none;align=center;verticalAlign=middle;whiteSpace=wrap;rounded=0;rotation=0;fontSize=16;" vertex="1" parent="1">
          <mxGeometry x="970" y="460" width="60" height="30" as="geometry" />
        </mxCell>
        <mxCell id="hg2JY5M4wenPQIr7XRld-88" value="F" style="text;html=1;strokeColor=none;fillColor=none;align=center;verticalAlign=middle;whiteSpace=wrap;rounded=0;rotation=0;fontSize=16;" vertex="1" parent="1">
          <mxGeometry x="510" y="460" width="60" height="30" as="geometry" />
        </mxCell>
        <mxCell id="hg2JY5M4wenPQIr7XRld-89" value="F" style="text;html=1;strokeColor=none;fillColor=none;align=center;verticalAlign=middle;whiteSpace=wrap;rounded=0;rotation=0;fontSize=16;" vertex="1" parent="1">
          <mxGeometry x="270" y="460" width="60" height="30" as="geometry" />
        </mxCell>
        <mxCell id="hg2JY5M4wenPQIr7XRld-90" value="F" style="text;html=1;strokeColor=none;fillColor=none;align=center;verticalAlign=middle;whiteSpace=wrap;rounded=0;rotation=0;fontSize=16;" vertex="1" parent="1">
          <mxGeometry x="195" y="560" width="60" height="30" as="geometry" />
        </mxCell>
        <mxCell id="hg2JY5M4wenPQIr7XRld-91" value="F" style="text;html=1;strokeColor=none;fillColor=none;align=center;verticalAlign=middle;whiteSpace=wrap;rounded=0;rotation=0;fontSize=16;" vertex="1" parent="1">
          <mxGeometry x="315" y="560" width="60" height="30" as="geometry" />
        </mxCell>
        <mxCell id="hg2JY5M4wenPQIr7XRld-92" value="F" style="text;html=1;strokeColor=none;fillColor=none;align=center;verticalAlign=middle;whiteSpace=wrap;rounded=0;rotation=0;fontSize=16;" vertex="1" parent="1">
          <mxGeometry x="435" y="560" width="60" height="30" as="geometry" />
        </mxCell>
        <mxCell id="hg2JY5M4wenPQIr7XRld-93" value="F" style="text;html=1;strokeColor=none;fillColor=none;align=center;verticalAlign=middle;whiteSpace=wrap;rounded=0;rotation=0;fontSize=16;" vertex="1" parent="1">
          <mxGeometry x="555" y="560" width="60" height="30" as="geometry" />
        </mxCell>
        <mxCell id="hg2JY5M4wenPQIr7XRld-94" value="F" style="text;html=1;strokeColor=none;fillColor=none;align=center;verticalAlign=middle;whiteSpace=wrap;rounded=0;rotation=0;fontSize=16;" vertex="1" parent="1">
          <mxGeometry x="658" y="560" width="60" height="30" as="geometry" />
        </mxCell>
        <mxCell id="hg2JY5M4wenPQIr7XRld-95" value="F" style="text;html=1;strokeColor=none;fillColor=none;align=center;verticalAlign=middle;whiteSpace=wrap;rounded=0;rotation=0;fontSize=16;" vertex="1" parent="1">
          <mxGeometry x="778" y="560" width="60" height="30" as="geometry" />
        </mxCell>
        <mxCell id="hg2JY5M4wenPQIr7XRld-96" value="F" style="text;html=1;strokeColor=none;fillColor=none;align=center;verticalAlign=middle;whiteSpace=wrap;rounded=0;rotation=0;fontSize=16;" vertex="1" parent="1">
          <mxGeometry x="895" y="560" width="60" height="30" as="geometry" />
        </mxCell>
        <mxCell id="hg2JY5M4wenPQIr7XRld-97" value="F" style="text;html=1;strokeColor=none;fillColor=none;align=center;verticalAlign=middle;whiteSpace=wrap;rounded=0;rotation=0;fontSize=16;" vertex="1" parent="1">
          <mxGeometry x="1015" y="560" width="60" height="30" as="geometry" />
        </mxCell>
      </root>
    </mxGraphModel>
  </diagram>
</mxfile>
